<?xml version="1.0" encoding="UTF-8"?>
<svg id="Calque_1" xmlns="http://www.w3.org/2000/svg" viewBox="0 0 397.85 397.85">
  <defs>
    <style>
      .cls-1 {
        stroke-width: 5px;
      }

      .cls-1, .cls-2, .cls-3 {
        stroke: #1d1d1b;
      }

      .cls-1, .cls-2, .cls-3, .cls-4 {
        stroke-miterlimit: 10;
      }

      .cls-1, .cls-3 {
        fill: none;
      }

      .cls-5 {
        fill: #1d1d1b;
      }

      .cls-2 {
        fill: #fff;
      }

      .cls-3 {
        stroke-width: 3px;
      }

      .cls-6 {
        fill: #0476bc;
      }

      .cls-4 {
        fill: #4b4f52;
        stroke: #4b4f52;
      }
    </style>
  </defs>
  <circle class="cls-2" cx="198.93" cy="198.93" r="198.43"/>
  <g>
    <g>
      <path class="cls-5" d="M111.22,265.32c2.7-.45,6.24-.84,10.75-.84,5.53,0,9.59,1.29,12.16,3.6,2.38,2.06,3.8,5.21,3.8,9.08s-1.16,7.02-3.35,9.27c-2.96,3.15-7.79,4.76-13.26,4.76-1.67,0-3.22-.06-4.5-.39v17.38h-5.6v-42.86ZM116.82,286.24c1.22.32,2.77.45,4.63.45,6.76,0,10.88-3.28,10.88-9.27s-4.06-8.5-10.23-8.5c-2.45,0-4.31.19-5.28.45v16.86Z"/>
      <path class="cls-5" d="M160.84,308.19l-.45-3.93h-.19c-1.74,2.45-5.08,4.63-9.53,4.63-6.31,0-9.53-4.44-9.53-8.95,0-7.53,6.69-11.65,18.73-11.59v-.64c0-2.57-.71-7.21-7.08-7.21-2.9,0-5.92.9-8.11,2.32l-1.29-3.73c2.57-1.67,6.31-2.77,10.23-2.77,9.53,0,11.84,6.5,11.84,12.74v11.65c0,2.7.13,5.34.51,7.47h-5.15ZM160,292.29c-6.18-.13-13.19.97-13.19,7.02,0,3.67,2.45,5.41,5.34,5.41,4.06,0,6.63-2.57,7.53-5.21.19-.58.32-1.22.32-1.8v-5.41Z"/>
      <path class="cls-5" d="M174.61,286.76c0-3.67-.06-6.82-.26-9.72h4.96l.19,6.11h.26c1.42-4.18,4.83-6.82,8.62-6.82.64,0,1.09.06,1.61.19v5.34c-.58-.13-1.16-.19-1.93-.19-3.99,0-6.82,3.02-7.59,7.27-.13.77-.26,1.67-.26,2.64v16.61h-5.6v-21.43Z"/>
      <path class="cls-5" d="M202.23,270.43c.06,1.93-1.35,3.47-3.6,3.47-1.99,0-3.41-1.54-3.41-3.47s1.48-3.54,3.54-3.54,3.48,1.54,3.48,3.54ZM195.92,308.19v-31.15h5.66v31.15h-5.66Z"/>
      <path class="cls-5" d="M210.4,301.37c2.51,1.54,6.18,2.83,10.04,2.83,5.73,0,9.08-3.03,9.08-7.4,0-4.06-2.32-6.37-8.17-8.62-7.08-2.51-11.46-6.18-11.46-12.29,0-6.76,5.6-11.78,14.03-11.78,4.44,0,7.66,1.03,9.59,2.12l-1.54,4.57c-1.42-.77-4.31-2.06-8.24-2.06-5.92,0-8.17,3.54-8.17,6.5,0,4.06,2.64,6.05,8.62,8.37,7.34,2.83,11.07,6.37,11.07,12.74,0,6.69-4.96,12.49-15.19,12.49-4.18,0-8.75-1.22-11.07-2.77l1.42-4.7Z"/>
      <path class="cls-5" d="M260.15,308.19l-.45-3.93h-.19c-1.74,2.45-5.08,4.63-9.53,4.63-6.31,0-9.53-4.44-9.53-8.95,0-7.53,6.69-11.65,18.73-11.59v-.64c0-2.57-.71-7.21-7.08-7.21-2.9,0-5.92.9-8.11,2.32l-1.29-3.73c2.57-1.67,6.31-2.77,10.23-2.77,9.53,0,11.84,6.5,11.84,12.74v11.65c0,2.7.13,5.34.51,7.47h-5.15ZM259.31,292.29c-6.18-.13-13.19.97-13.19,7.02,0,3.67,2.45,5.41,5.34,5.41,4.06,0,6.63-2.57,7.53-5.21.19-.58.32-1.22.32-1.8v-5.41Z"/>
      <path class="cls-5" d="M280.49,268.09v8.95h8.11v4.31h-8.11v16.8c0,3.86,1.09,6.05,4.25,6.05,1.48,0,2.57-.19,3.28-.39l.26,4.25c-1.09.45-2.83.77-5.02.77-2.64,0-4.76-.84-6.11-2.38-1.61-1.67-2.19-4.44-2.19-8.11v-16.99h-4.83v-4.31h4.83v-7.47l5.53-1.48Z"/>
    </g>
    <circle class="cls-1" cx="199.17" cy="182.87" r="65.64"/>
    <path class="cls-5" d="M116.93,260.31c-2.74,0-3.66-1.1-4.18-1.71-5.79-6.89,18.75-33.48,30.17-45.27l1.45,2.66c-26.36,27.21-31.27,38.59-29.43,40.77.37.45,4.43,3.89,30.99-12.43,18.24-11.21,40.92-28,63.87-47.29,22.95-19.28,43.4-38.73,57.59-54.77,20.66-23.35,17.96-27.94,17.59-28.38-.67-.8-4.87-1.03-15.98,3.76-9.34,4.03-17.15,8-28.1,15.3l-3.14-1.46c17.2-11.45,44.15-25.69,49.41-19.44,5.25,6.25-11.98,25.72-17.64,32.12-14.28,16.14-34.84,35.69-57.89,55.06-23.05,19.37-45.86,36.25-64.22,47.53-17.82,10.95-26.3,13.55-30.5,13.55Z"/>
    <circle class="cls-5" cx="164.13" cy="170.25" r="2.91"/>
    <circle class="cls-5" cx="273.88" cy="155.04" r="2.91"/>
    <circle class="cls-5" cx="201.96" cy="150.61" r="4.75"/>
    <circle class="cls-5" cx="230.16" cy="208.61" r="3.19"/>
    <path class="cls-3" d="M262.44,203.02c7.95,10.34,11.12,19.05,7.8,24.16-7.52,11.58-45.45.29-84.72-25.22-39.27-25.5-65.02-55.57-57.5-67.14,3.58-5.51,14.05-5.84,28.29-1.92"/>
    <polygon class="cls-5" points="248.41 164.39 223.32 173.64 234.48 177.14 236.97 188.56 248.41 164.39"/>
  </g>
  <g>
    <path class="cls-4" d="M46.23,221.73c-.18.45-.51.73-.98.86s-.93.05-1.36-.21c-.33-.18-.53-.43-.6-.76s-.04-.67.1-1.03c.15-.41.25-.84.31-1.28.06-.44.06-.9,0-1.37-.09-.88-.33-1.65-.69-2.3-.37-.66-.85-1.2-1.44-1.63-.6-.43-1.28-.73-2.05-.9s-1.6-.21-2.5-.11c-1.05.11-1.95.35-2.69.72-.75.37-1.35.83-1.81,1.39-.46.56-.78,1.19-.96,1.9-.18.71-.22,1.46-.14,2.26.05.44.14.87.27,1.3.13.43.33.83.6,1.22.21.32.31.65.29.99-.02.34-.17.64-.45.9-.4.37-.83.54-1.29.5-.47-.04-.83-.25-1.08-.64-.27-.4-.5-.81-.7-1.24-.19-.43-.36-.87-.48-1.32s-.22-.91-.27-1.38c-.13-1.17-.05-2.3.24-3.39.28-1.09.77-2.09,1.46-2.99.69-.9,1.59-1.65,2.7-2.25,1.11-.6,2.44-.98,3.97-1.14,1.33-.14,2.57-.06,3.74.25,1.17.31,2.2.81,3.1,1.51.9.7,1.64,1.56,2.21,2.58.57,1.02.93,2.17,1.06,3.43.08.71.07,1.42-.03,2.12-.1.7-.28,1.37-.54,2Z"/>
    <path class="cls-4" d="M34.52,236.92c.08.42,0,.79-.22,1.13-.23.33-.56.54-1,.63-.43.08-.81,0-1.14-.22-.33-.23-.54-.55-.62-.97l-1.5-7.82c-.08-.42,0-.79.25-1.13.24-.34.59-.55,1.03-.63l14.76-2.83c.44-.08.84-.01,1.19.22.35.23.57.57.66,1.02.07.39,0,.75-.25,1.11-.24.35-.58.57-1.03.66l-13.76,2.64.33-.61,1.31,6.81Z"/>
    <path class="cls-4" d="M53.48,249.32c.12.41.06.78-.16,1.11-.22.33-.55.56-.98.68l-9.06,2.56c-1.38.39-2.69.46-3.91.2-1.23-.26-2.28-.79-3.15-1.59s-1.5-1.85-1.86-3.14c-.36-1.29-.39-2.51-.06-3.66.32-1.15.94-2.16,1.85-3.02.91-.86,2.06-1.49,3.44-1.88l9.06-2.56c.43-.12.84-.08,1.21.12.37.2.62.52.74.96.1.36.05.73-.16,1.1s-.53.62-.96.74l-9.06,2.56c-.83.24-1.51.61-2.02,1.12-.51.51-.86,1.09-1.03,1.74s-.17,1.29,0,1.92c.19.68.54,1.26,1.03,1.75s1.1.83,1.81,1.01c.71.19,1.48.17,2.32-.07l9.06-2.56c.43-.12.83-.11,1.19.05.36.15.6.43.71.84Z"/>
    <path class="cls-4" d="M57.73,261.05c.57,1.46.63,2.69.18,3.69-.45,1-1.38,1.78-2.8,2.33-.76.3-1.49.38-2.2.25-.71-.13-1.36-.47-1.94-1.03-.58-.56-1.07-1.35-1.46-2.35l1.13-.33c.18.47.33,1.04.43,1.7.1.66.09,1.35-.04,2.05-.13.71-.43,1.37-.9,1.98-.48.62-1.2,1.11-2.17,1.49-1.07.42-2,.59-2.81.53-.81-.06-1.5-.29-2.08-.68-.58-.39-1.06-.86-1.43-1.42-.38-.56-.67-1.12-.89-1.68l-2.21-5.69c-.15-.4-.14-.78.04-1.16.18-.38.48-.65.9-.81l14-5.45c.42-.16.82-.17,1.21-.01.39.16.66.43.81.83l2.24,5.75ZM48.14,264.52l-1.62-4.16.27.13-5.11,1.99.15-.32,1.69,4.34c.27.7.69,1.18,1.24,1.44.56.26,1.23.23,2.02-.08.73-.28,1.2-.62,1.42-1.02.22-.4.29-.81.22-1.22-.07-.41-.16-.78-.29-1.1ZM54.71,261.75l-1.58-4.06.5.15-4.38,1.71.11-.36,1.6,4.11c.17.44.48.78.92,1.01.44.23.96.23,1.54,0,.69-.27,1.14-.63,1.32-1.08s.18-.94-.03-1.47Z"/>
    <path class="cls-4" d="M50.35,288.56c-.55-1-.91-1.98-1.09-2.92-.17-.95-.13-1.97.14-3.07.06-.28.18-.53.33-.74.16-.22.34-.38.56-.5.35-.19.72-.24,1.12-.15.4.09.69.31.89.67.15.27.19.57.13.88-.17.8-.23,1.54-.18,2.21.05.67.29,1.4.73,2.19.29.53.65.97,1.06,1.32.42.35.85.58,1.3.69.45.11.86.06,1.24-.15.46-.25.77-.59.95-1.02.18-.43.23-.98.16-1.63-.07-.65-.27-1.42-.6-2.3-.3-.84-.49-1.62-.56-2.35s-.02-1.39.15-2c.17-.61.46-1.15.88-1.64s.95-.91,1.6-1.27c.99-.54,1.96-.76,2.92-.67.96.1,1.85.45,2.66,1.07.81.62,1.49,1.42,2.03,2.41.51.93.84,1.88.98,2.83.14.96.12,1.81-.06,2.56-.12.61-.41,1.04-.87,1.29-.33.18-.71.23-1.11.14-.41-.09-.7-.3-.88-.63-.12-.21-.16-.45-.11-.69.09-.35.12-.76.1-1.25-.02-.49-.09-.99-.19-1.49-.11-.5-.26-.94-.47-1.31-.34-.62-.71-1.09-1.11-1.42-.4-.33-.8-.52-1.21-.58-.41-.06-.8.02-1.18.23-.46.25-.76.58-.92,1-.16.41-.2.9-.11,1.47.08.57.24,1.22.46,1.95.3.95.52,1.81.65,2.59.13.78.13,1.48.01,2.1-.12.62-.39,1.19-.81,1.7s-1.02.98-1.79,1.4c-.99.54-1.98.75-2.98.63-1-.12-1.92-.5-2.76-1.13-.84-.63-1.53-1.43-2.06-2.4Z"/>
    <path class="cls-4" d="M76.87,297.85c.05.48-.11.88-.47,1.21-.36.33-.8.48-1.3.44-.38,0-.67-.13-.89-.39s-.35-.58-.39-.96c-.06-.43-.17-.86-.32-1.27-.15-.42-.36-.82-.63-1.22-.49-.73-1.05-1.31-1.68-1.72-.63-.41-1.31-.67-2.04-.77-.73-.1-1.47-.05-2.23.15-.76.21-1.51.56-2.26,1.06-.88.59-1.56,1.22-2.05,1.89s-.81,1.36-.96,2.07c-.15.71-.14,1.42.03,2.13.17.71.48,1.4.93,2.06.25.37.53.71.84,1.03.32.32.68.58,1.1.8.33.19.57.44.72.74.14.31.15.64.02,1.01-.18.51-.48.86-.91,1.04-.43.18-.85.16-1.25-.06-.42-.23-.82-.49-1.19-.78s-.72-.61-1.04-.94c-.32-.34-.61-.7-.88-1.09-.65-.98-1.11-2.01-1.37-3.11-.26-1.1-.29-2.21-.1-3.32.19-1.12.64-2.2,1.34-3.25s1.7-2,2.98-2.86c1.11-.74,2.25-1.25,3.43-1.52,1.18-.27,2.33-.3,3.45-.1,1.12.2,2.18.62,3.16,1.26.98.64,1.83,1.49,2.54,2.55.4.6.72,1.23.96,1.89.24.67.39,1.34.45,2.03Z"/>
    <path class="cls-4" d="M68.35,312.5c-.36.28-.75.38-1.18.32-.43-.06-.77-.25-1.02-.58-.28-.36-.38-.75-.31-1.15.07-.41.28-.75.64-1.02l11.9-9.18c.36-.28.74-.39,1.16-.34s.77.25,1.05.61c.24.31.33.68.28,1.1-.06.42-.26.77-.62,1.05l-11.9,9.18Z"/>
    <path class="cls-4" d="M84.71,306.34l5.42,6.17c.28.32.41.68.38,1.08s-.21.75-.55,1.05c-.33.29-.68.41-1.07.37s-.73-.22-1.01-.54l-4.53-5.16.48-.13-3.81,3.34.03-.28,3.78,4.31c.28.32.41.68.38,1.08-.03.4-.21.75-.55,1.05-.33.29-.68.41-1.07.37-.39-.04-.73-.22-1.01-.53l-3.73-4.25.24-.04-3.95,3.46.05-.3,4.51,5.14c.28.32.4.69.36,1.1s-.21.75-.51,1.02c-.33.29-.69.41-1.08.38-.4-.03-.74-.21-1.02-.53l-5.42-6.17c-.28-.32-.4-.69-.36-1.1.04-.42.23-.77.57-1.07l11.29-9.92c.34-.3.72-.44,1.13-.42.42.01.76.18,1.04.5Z"/>
    <path class="cls-4" d="M102.33,324.39c.29.27.42.59.41.96-.01.37-.16.71-.44,1.01l-10.36,11.07c-.31.33-.67.51-1.09.53-.42.03-.78-.11-1.09-.4-.16-.15-.29-.32-.39-.53-.11-.21-.16-.4-.14-.58l1.84-16.05.75.13-8.46,9.04c-.28.3-.61.47-.99.5-.38.03-.71-.1-1.01-.37-.29-.27-.42-.59-.41-.96s.16-.71.44-1.01l10.36-11.07c.31-.33.67-.51,1.09-.53.42-.03.78.11,1.09.4.17.16.31.35.42.59.11.24.15.46.1.68l-1.82,15.6-.52-.06,8.24-8.81c.28-.3.61-.47.98-.51.37-.03.7.09,1,.37Z"/>
    <path class="cls-4" d="M99.54,345.41c-.36-.28-.57-.62-.62-1.04s.06-.81.33-1.17l9.11-12.02,2.54,1.92-9.11,12.02c-.27.36-.62.57-1.04.63-.42.06-.83-.05-1.2-.34ZM104.41,330.02c-.34-.26-.54-.58-.6-.97-.06-.39.05-.77.32-1.13.27-.36.6-.56.99-.6.39-.04.75.07,1.09.32l8.67,6.57c.34.26.54.58.6.98.06.39-.05.77-.32,1.13s-.6.56-.99.6c-.39.04-.75-.07-1.09-.32l-8.67-6.57Z"/>
    <path class="cls-4" d="M111.68,351.95c-.25.38-.58.61-1.01.69-.43.08-.81.02-1.15-.21-.38-.25-.61-.58-.68-.98-.07-.41.02-.8.27-1.17l8.21-12.59c.25-.38.57-.61.99-.71.41-.09.81-.02,1.19.23.33.21.54.53.62.95.09.42,0,.82-.24,1.19l-8.21,12.59Z"/>
    <path class="cls-4" d="M116.22,356.63c-.4-.22-.65-.54-.75-.94-.1-.4-.04-.8.18-1.2l7.34-13.11c.22-.39.53-.65.93-.78s.78-.08,1.15.12l6.95,3.89c.37.21.61.51.72.9.11.39.05.78-.17,1.17-.19.33-.48.56-.87.68-.39.12-.78.07-1.15-.13l-5.77-3.23.34-.16-2.55,4.56.02-.38,4.77,2.67c.37.21.61.51.72.89.11.39.05.78-.17,1.17-.19.33-.48.56-.87.67-.39.12-.78.07-1.15-.13l-4.81-2.69.31-.1-3.07,5.49c-.22.39-.54.65-.95.77-.41.12-.8.08-1.15-.12Z"/>
    <path class="cls-4" d="M131.48,362.79c-.19.41-.5.68-.9.82-.41.14-.8.12-1.17-.05-.41-.2-.68-.49-.8-.88-.12-.39-.09-.79.11-1.2l6.43-13.58c.19-.41.49-.69.88-.83.4-.15.8-.12,1.21.07.35.17.6.45.75.86.14.4.12.81-.07,1.22l-6.43,13.58Z"/>
    <path class="cls-4" d="M149.93,372.66c.32.12.57.37.74.76s.18.77.04,1.14c-.14.37-.43.67-.87.88-.44.21-.95.36-1.54.44s-1.17.09-1.75.04c-.58-.05-1.09-.16-1.52-.32-.95-.36-1.67-.73-2.17-1.13s-.88-.78-1.16-1.16c-.28-.37-.54-.71-.8-1.02-.25-.31-.61-.55-1.07-.72-.29-.11-.54-.14-.76-.1-.22.04-.45.07-.69.1-.25.03-.55-.03-.92-.16s-.65-.42-.79-.82c-.14-.41-.15-.79-.02-1.14.24-.63.66-.96,1.28-.97l5.45-.1,1.86,1.31-5.11.09,1.61-.31c.54.2.97.46,1.32.78.34.32.66.66.94,1.01.29.35.6.68.92,1,.33.32.74.57,1.25.76.41.16.79.21,1.13.17.34-.04.65-.11.93-.21.34-.11.64-.22.91-.31.27-.09.53-.09.77,0ZM153.29,363.42c-.46,1.22-1.07,2.28-1.85,3.19-.78.91-1.66,1.64-2.66,2.18-1,.54-2.06.86-3.18.96-1.13.1-2.26-.07-3.39-.49-1.13-.42-2.09-1.04-2.87-1.85-.78-.81-1.37-1.75-1.76-2.81-.4-1.06-.59-2.2-.57-3.39.01-1.2.25-2.41.7-3.62.46-1.22,1.07-2.28,1.85-3.19.78-.91,1.66-1.64,2.66-2.18,1-.54,2.05-.86,3.17-.96,1.12-.1,2.24.06,3.38.49,1.13.42,2.09,1.04,2.88,1.85.79.81,1.38,1.75,1.77,2.82.4,1.06.59,2.2.57,3.39-.01,1.2-.25,2.41-.7,3.62ZM150.3,362.3c.41-1.09.57-2.15.49-3.19-.08-1.04-.39-1.95-.91-2.74-.52-.79-1.26-1.36-2.21-1.71s-1.88-.41-2.79-.16c-.91.25-1.74.74-2.47,1.46-.73.72-1.31,1.64-1.72,2.74-.41,1.09-.57,2.15-.5,3.19.07,1.04.37,1.95.9,2.74.52.79,1.26,1.36,2.21,1.72.95.35,1.88.41,2.79.16.91-.25,1.74-.74,2.49-1.47.74-.73,1.32-1.64,1.73-2.73Z"/>
    <path class="cls-4" d="M170.53,358.33c.41.1.71.33.89.68.18.36.22.75.11,1.19l-2.22,9.15c-.34,1.4-.92,2.57-1.75,3.51-.83.94-1.8,1.59-2.93,1.96-1.13.37-2.35.39-3.65.08-1.3-.32-2.38-.9-3.22-1.75s-1.42-1.88-1.72-3.09c-.3-1.21-.28-2.52.06-3.92l2.22-9.15c.11-.44.34-.77.7-1s.76-.28,1.2-.18c.37.09.66.32.88.68.22.37.28.77.17,1.21l-2.22,9.15c-.2.84-.21,1.61-.02,2.31.19.7.53,1.28,1.01,1.76.48.47,1.04.79,1.67.94.68.17,1.36.15,2.03-.04.67-.19,1.26-.55,1.77-1.08.51-.53.87-1.21,1.08-2.05l2.22-9.15c.11-.44.31-.78.62-1.01.31-.24.67-.31,1.08-.21Z"/>
    <path class="cls-4" d="M176.65,359.41l8.14,1.08c.42.06.75.25,1,.57s.34.71.28,1.15c-.06.43-.25.76-.56.99-.32.23-.69.31-1.11.26l-6.8-.91.28-.41-.67,5.03-.17-.23,5.68.76c.42.06.75.25,1,.57s.34.71.28,1.15c-.06.43-.25.76-.56.99-.32.23-.69.32-1.11.26l-5.61-.75.15-.19-.69,5.21-.16-.26,6.78.9c.42.06.75.25,1,.59s.34.71.29,1.1c-.06.43-.25.76-.57,1s-.69.33-1.11.27l-8.14-1.09c-.42-.06-.75-.25-1-.59-.24-.34-.33-.73-.28-1.18l1.99-14.9c.06-.45.25-.8.57-1.06.32-.26.7-.37,1.12-.31Z"/>
    <path class="cls-4" d="M203.04,361.14c1.18-.02,2.23.19,3.15.64s1.71,1.09,2.35,1.92c.65.83,1.14,1.79,1.48,2.88s.52,2.26.55,3.51c.03,1.68-.22,3.22-.76,4.61-.54,1.39-1.35,2.5-2.42,3.34s-2.4,1.27-3.98,1.3l-5.85.12c-.42,0-.78-.13-1.08-.43-.29-.3-.44-.67-.45-1.12l-.31-15.03c0-.45.13-.83.41-1.14.28-.31.63-.47,1.06-.48l5.85-.12ZM203.1,376.35c1.03-.02,1.86-.32,2.51-.9s1.1-1.33,1.39-2.26c.28-.93.41-1.95.39-3.04-.02-.81-.12-1.59-.3-2.32-.19-.73-.47-1.38-.84-1.93-.37-.56-.84-.99-1.4-1.31-.56-.32-1.23-.47-1.99-.45l-4.29.09.24-.24.26,12.74-.15-.28,4.19-.09Z"/>
    <path class="cls-4" d="M214.31,360.49l8.14-1.03c.42-.05.79.04,1.11.29s.51.6.56,1.04c.05.43-.04.8-.29,1.1-.25.3-.59.48-1.01.53l-6.81.86.16-.47.64,5.03-.22-.18,5.69-.72c.42-.05.79.04,1.11.29.32.25.51.59.56,1.04.05.43-.04.8-.29,1.1-.25.3-.59.48-1.01.53l-5.62.71.1-.22.66,5.21-.22-.21,6.78-.86c.42-.05.79.05,1.11.32.32.27.51.6.56.99.05.43-.04.8-.29,1.11-.25.31-.58.49-1,.55l-8.14,1.03c-.42.05-.79-.05-1.11-.32-.32-.26-.51-.62-.57-1.07l-1.89-14.91c-.06-.45.04-.84.28-1.18.25-.34.58-.53,1-.59Z"/>
    <path class="cls-4" d="M241.92,374.1c-.9.25-1.79.28-2.66.11-.88-.17-1.66-.55-2.34-1.14-.27-.25-.45-.52-.52-.8-.11-.42-.06-.81.17-1.18s.49-.59.79-.67c.24-.07.49-.05.76.04.27.09.53.21.77.35.4.21.77.34,1.11.38.34.04.71,0,1.1-.1.47-.13.88-.38,1.22-.74.34-.36.58-.79.72-1.27.14-.49.14-.97,0-1.46l-2.88-10.53c-.12-.43-.07-.84.15-1.21.22-.37.53-.62.92-.72.44-.12.83-.07,1.18.15.35.22.58.55.7.98l2.88,10.53c.28,1.02.29,2.03.02,3.04-.27,1.01-.75,1.89-1.46,2.66-.7.77-1.58,1.3-2.64,1.58Z"/>
    <path class="cls-4" d="M247.35,353.17l7.68-2.89c.4-.15.78-.14,1.15.03.37.17.63.46.79.88.15.41.14.78-.03,1.14s-.46.6-.86.75l-6.42,2.42.05-.49,1.78,4.75-.26-.12,5.37-2.02c.4-.15.78-.14,1.15.03.37.17.63.46.79.88.15.41.14.78-.03,1.14-.17.35-.46.6-.86.75l-5.3,1.99.04-.24,1.85,4.92-.27-.15,6.4-2.41c.4-.15.78-.13,1.16.05.37.18.63.46.77.83.15.41.14.79-.03,1.15s-.45.61-.85.76l-7.68,2.89c-.4.15-.78.13-1.16-.05-.37-.18-.64-.49-.8-.91l-5.29-14.07c-.16-.42-.16-.83,0-1.21.16-.38.44-.65.84-.8Z"/>
    <path class="cls-4" d="M269.61,343.33c.38-.19.75-.21,1.12-.05.37.16.66.43.86.84l4.21,8.42c.64,1.29.95,2.56.93,3.81-.02,1.25-.35,2.38-.98,3.39-.63,1.01-1.54,1.82-2.74,2.42s-2.39.85-3.59.75c-1.19-.1-2.29-.52-3.31-1.25s-1.84-1.74-2.49-3.03l-4.21-8.42c-.2-.4-.24-.81-.11-1.21.13-.4.4-.71.81-.91.34-.17.71-.18,1.11-.05.41.14.71.41.91.81l4.21,8.42c.39.78.88,1.37,1.48,1.78.6.41,1.23.64,1.91.69.67.05,1.3-.07,1.89-.36.63-.31,1.13-.76,1.52-1.34.39-.58.61-1.24.66-1.97.05-.73-.11-1.49-.5-2.26l-4.21-8.42c-.2-.4-.26-.79-.18-1.18.08-.38.32-.67.7-.86Z"/>
    <path class="cls-4" d="M284.64,334c.33-.21.67-.27,1.03-.17s.65.32.88.67l8.28,12.7c.25.38.33.77.26,1.18-.07.41-.29.73-.64.96-.18.12-.38.2-.61.26-.23.05-.43.06-.6,0l-15.15-5.61.31-.7,6.76,10.37c.23.35.31.71.25,1.08-.06.37-.26.67-.6.89-.33.21-.67.27-1.03.17-.36-.1-.65-.32-.88-.67l-8.28-12.7c-.25-.38-.33-.77-.26-1.18.07-.41.29-.73.64-.96.19-.12.42-.21.67-.27.26-.05.49-.03.69.06l14.72,5.49-.18.49-6.59-10.11c-.23-.35-.31-.71-.26-1.07.05-.37.25-.66.59-.88Z"/>
    <path class="cls-4" d="M289.59,330.27l6.39-5.16c.33-.27.7-.38,1.1-.34.4.04.74.24,1.03.59.27.34.38.7.33,1.09s-.25.72-.58.98l-5.34,4.31-.11-.48,3.19,3.95-.28-.04,4.46-3.6c.33-.27.7-.38,1.1-.33.4.04.74.24,1.03.59.27.34.38.7.33,1.09s-.25.72-.58.98l-4.4,3.55-.04-.24,3.3,4.09-.3-.06,5.32-4.29c.33-.27.7-.37,1.12-.32s.75.24,1,.55c.27.34.38.7.34,1.1-.05.4-.24.73-.57.99l-6.39,5.16c-.33.27-.7.37-1.12.32s-.76-.26-1.04-.61l-9.44-11.69c-.28-.35-.41-.73-.38-1.15.03-.42.21-.76.54-1.02Z"/>
    <path class="cls-4" d="M315.84,331.9c-.82.79-1.67,1.4-2.54,1.82-.87.42-1.87.64-3,.67-.29.01-.55-.03-.8-.13-.25-.09-.46-.23-.63-.4-.28-.29-.42-.63-.44-1.04s.12-.75.42-1.03c.22-.21.5-.33.82-.35.82-.04,1.55-.18,2.18-.41.63-.23,1.27-.65,1.92-1.28.43-.42.76-.88.99-1.37s.33-.97.32-1.43c-.01-.46-.17-.84-.47-1.16-.36-.37-.77-.59-1.24-.65-.46-.06-1,.03-1.61.27s-1.3.63-2.06,1.18c-.73.51-1.44.9-2.12,1.16s-1.33.39-1.97.38c-.63,0-1.24-.14-1.81-.42-.58-.27-1.13-.67-1.65-1.21-.78-.81-1.25-1.69-1.42-2.65-.16-.95-.05-1.9.33-2.85.38-.95.98-1.81,1.79-2.59.76-.74,1.59-1.3,2.48-1.69.89-.39,1.72-.59,2.49-.62.62-.04,1.11.12,1.47.5.27.27.41.62.42,1.04.02.42-.11.76-.38,1.02-.18.17-.39.27-.64.29-.36,0-.77.09-1.24.24-.47.15-.93.34-1.38.58-.45.23-.83.5-1.14.79-.51.49-.87.97-1.08,1.44-.21.47-.29.91-.24,1.32.05.41.23.77.53,1.08.36.37.76.58,1.2.63.44.04.92-.05,1.45-.28s1.11-.55,1.76-.96c.84-.54,1.61-.98,2.33-1.31.71-.33,1.39-.52,2.03-.57.64-.05,1.26.06,1.86.34s1.21.73,1.83,1.36c.78.81,1.25,1.71,1.39,2.71.14,1,.02,1.98-.36,2.96-.39.98-.98,1.85-1.78,2.62Z"/>
    <path class="cls-4" d="M318.42,301.42c.72-.93,1.55-1.61,2.48-2.04.93-.43,1.92-.64,2.97-.62s2.11.24,3.17.67c1.06.42,2.09,1.02,3.07,1.79,1.33,1.03,2.36,2.2,3.09,3.5s1.09,2.63,1.07,3.98c-.03,1.36-.52,2.66-1.5,3.91l-3.6,4.62c-.26.34-.6.52-1.01.56s-.8-.08-1.16-.36l-11.85-9.24c-.35-.28-.56-.62-.63-1.03-.06-.41.04-.79.3-1.12l3.6-4.62ZM330.27,310.96c.63-.81.93-1.65.88-2.51-.04-.86-.34-1.7-.88-2.5-.55-.81-1.25-1.55-2.11-2.22-.64-.5-1.31-.91-1.99-1.23s-1.36-.51-2.03-.57c-.67-.06-1.3.02-1.9.26-.6.24-1.14.66-1.61,1.26l-2.63,3.38-.03-.34,10.05,7.83-.32-.06,2.58-3.3Z"/>
    <path class="cls-4" d="M325.11,292.21l4.42-6.92c.23-.36.54-.58.93-.67.39-.09.78,0,1.16.23.37.23.58.54.66.93.07.39,0,.76-.23,1.12l-3.69,5.78-.25-.42,4.27,2.73-.28.05,3.08-4.83c.23-.36.54-.58.93-.67s.78,0,1.16.23c.37.23.58.54.66.93s0,.76-.23,1.12l-3.04,4.77-.11-.21,4.43,2.83-.3.04,3.68-5.76c.23-.36.55-.58.96-.65.41-.08.78,0,1.12.21.37.23.59.54.67.94.08.39,0,.76-.22,1.12l-4.42,6.92c-.23.36-.55.58-.96.65-.41.08-.8,0-1.18-.25l-12.67-8.08c-.38-.24-.62-.57-.72-.97-.1-.4-.04-.78.19-1.14Z"/>
    <path class="cls-4" d="M337.96,269.23c.36-.77.94-1.38,1.73-1.83.79-.45,1.68-.69,2.67-.73,1-.04,1.99.18,2.97.65.97.46,1.76,1.08,2.36,1.88.6.79.99,1.64,1.15,2.53.16.9.06,1.73-.3,2.5l-1.93,4.08-.32-.42,4.87,2.3c.41.19.69.47.85.84.16.37.15.74-.03,1.12-.17.37-.46.61-.84.71s-.78.06-1.19-.13l-13.58-6.43c-.41-.19-.69-.48-.84-.87-.15-.39-.14-.77.04-1.16l2.39-5.05ZM345.86,272.97c.13-.28.14-.61.01-1-.12-.38-.35-.76-.66-1.13s-.69-.65-1.13-.86c-.45-.21-.92-.33-1.39-.33s-.9.06-1.27.21c-.37.15-.62.37-.75.65l-1.95,4.12-.3-.47,5.99,2.83-.49.07,1.94-4.1Z"/>
    <path class="cls-4" d="M346.71,258.83l10.51,9.59c.27.22.45.48.53.76.09.29.08.56-.02.82-.16.41-.39.67-.71.78-.32.11-.66.09-1.01-.04-.15-.06-.29-.14-.44-.24l-12.41-11.17c-.28-.24-.46-.53-.54-.84s-.05-.62.09-.9c.1-.28.28-.5.54-.67.26-.17.56-.25.91-.25l16.38-.29c.24,0,.45.04.63.1.44.16.74.43.9.79.16.37.18.71.06,1.03-.1.28-.29.49-.55.64-.26.16-.57.24-.92.24l-14.05.36.1-.72ZM354.51,266.6l-2.33-2.31,2.32-6.19,2.96.61-2.96,7.89Z"/>
    <path class="cls-4" d="M363.98,251.92c-.12.44-.37.8-.76,1.06-.39.27-.8.34-1.23.22l-14.5-3.94c-.44-.12-.76-.35-.98-.71s-.27-.74-.16-1.15l1.85-6.81c.22-.82.66-1.53,1.32-2.12s1.45-1,2.38-1.22c.93-.22,1.92-.19,2.98.1.64.17,1.22.46,1.76.87.54.41.99.89,1.36,1.44.37.55.62,1.12.75,1.71l-.57-.18c.37-.37.77-.66,1.19-.86.42-.2.85-.33,1.29-.38.44-.06.89-.04,1.35.05.44.05.82.11,1.14.17s.6.09.84.08c.24-.01.44-.1.61-.28.31-.29.68-.42,1.12-.39.43.03.77.21,1.02.57.17.23.25.49.23.77-.01.28-.09.55-.22.8-.13.25-.27.45-.42.6-.24.22-.56.42-.96.6-.4.18-.9.28-1.49.29s-1.33-.1-2.2-.33c-.28-.08-.56-.1-.83-.07-.27.03-.51.11-.74.23-.22.13-.42.31-.58.55-.17.24-.3.55-.4.91l-1.3,4.78-.48-.51,5.44,1.48c.43.12.77.33,1,.63.23.3.3.65.19,1.04ZM355.25,248.56l1.5-5.51c.08-.28.01-.6-.19-.94-.2-.34-.52-.67-.95-.97-.43-.3-.93-.53-1.5-.69-.74-.2-1.4-.18-2,.05-.59.24-.95.57-1.06.99l-1.49,5.46-.73-.5,7.1,1.93-.69.17Z"/>
    <path class="cls-4" d="M366.96,232.86c.44.09.78.32,1.02.68.24.36.31.75.23,1.15-.09.45-.31.78-.66.99-.35.21-.75.28-1.19.19l-14.74-2.95c-.44-.09-.78-.31-1.02-.65-.24-.35-.31-.75-.22-1.19.08-.38.29-.7.65-.93.36-.24.76-.31,1.2-.22l14.74,2.95Z"/>
    <path class="cls-4" d="M370.43,223.1c-.16,1.13-.45,2.13-.87,3-.42.87-1.07,1.66-1.94,2.38-.22.18-.45.32-.71.4-.26.08-.5.1-.74.07-.39-.05-.72-.24-.99-.54s-.37-.66-.31-1.07c.04-.31.18-.57.42-.78.62-.54,1.1-1.1,1.46-1.67.36-.57.6-1.3.72-2.19.08-.6.06-1.16-.07-1.69-.13-.53-.34-.97-.63-1.32-.29-.35-.65-.56-1.08-.62-.52-.07-.97.01-1.37.26-.4.24-.77.65-1.1,1.21-.33.57-.63,1.3-.89,2.2-.26.86-.57,1.59-.95,2.22-.38.62-.81,1.13-1.31,1.51s-1.06.65-1.68.79c-.62.15-1.3.17-2.04.07-1.12-.15-2.03-.55-2.75-1.21-.71-.65-1.21-1.47-1.5-2.44-.29-.98-.35-2.03-.2-3.14.14-1.05.45-2,.91-2.86.46-.85.98-1.53,1.58-2.02.46-.42.95-.59,1.46-.52.38.05.7.24.97.55.27.32.38.66.33,1.03-.03.24-.14.45-.32.62-.28.23-.55.54-.83.95-.27.41-.52.84-.73,1.31-.21.47-.35.91-.41,1.33-.1.7-.08,1.3.04,1.8.12.5.33.9.62,1.19.29.29.65.46,1.08.52.52.07.96-.01,1.33-.25.37-.24.7-.61.97-1.12s.54-1.12.79-1.84c.32-.95.66-1.77,1.02-2.47.36-.7.77-1.27,1.24-1.7.47-.43,1.03-.72,1.67-.88s1.4-.18,2.28-.06c1.12.15,2.04.58,2.76,1.27.73.69,1.24,1.54,1.54,2.55s.37,2.06.22,3.16Z"/>
  </g>
  <g>
    <path class="cls-6" d="M75.35,155.29c.61,3.5,1.2,10.03.27,16.33-1.29,8.72-4.38,14.7-9.18,18.48-4.67,3.8-11.12,5.3-17.96,4.22-15.5-2.37-22.65-15.24-20.33-30.9.91-6.17,2.8-10.74,4.25-12.91l8.11,3.52c-1.5,2.46-2.88,5.58-3.66,10.83-1.33,9,2.64,16.54,12.75,18.04,9.62,1.43,16.22-3.9,17.53-12.75.37-2.48.39-4.5.1-5.42l-9.76-1.45-1.09,7.37-8.24-1.22,2.64-17.79,24.58,3.65Z"/>
    <path class="cls-6" d="M74.96,133.6l8.87,8.93-5.55,9.87-33.89-35.99,7.02-12.49,48.47,10.08-5.76,10.24-12.38-2.69-6.78,12.05ZM74.01,119.01l-10.2-2.29c-2.86-.62-6.33-1.59-9.13-2.34l-.07.12c2.09,2,4.85,4.37,6.84,6.4l7.32,7.4,5.23-9.3Z"/>
    <path class="cls-6" d="M73.05,75.66c2.27-2.74,5.92-6.5,10.28-10.33,5.38-4.73,9.84-7.25,14.18-7.52,3.63-.21,6.99,1.22,9.85,4.49,3.97,4.52,3.42,10.51,1.27,14.36l.14.16c3.41-1.22,6.89-.08,10.67,2.37,4.64,3,9.84,6.64,11.74,7.39l-8.4,7.37c-1.47-.48-4.87-2.62-9.78-6.04-4.85-3.57-7.47-3.41-10.86-.53l-2.48,2.17,12.24,13.94-8.13,7.14-30.73-34.98ZM94.57,83.77l3.23-2.84c4.09-3.59,4.76-7.72,2.03-10.82-2.86-3.26-6.56-2.91-10.37.35-1.99,1.75-2.98,2.9-3.48,3.52l8.59,9.78Z"/>
    <path class="cls-6" d="M154.15,54.79l-16.27,7.13,4.49,10.26,18.17-7.96,3.51,8.02-28.21,12.35-18.92-43.21,27.29-11.95,3.51,8.01-17.26,7.56,3.93,8.98,16.27-7.13,3.48,7.95Z"/>
    <path class="cls-6" d="M164.94,23.97l29.3-3.51,1.04,8.69-18.42,2.21,1.28,10.7,17.21-2.06,1.03,8.62-17.21,2.06,2.25,18.84-10.88,1.3-5.6-46.85Z"/>
    <path class="cls-6" d="M237.43,24.96c3.38.49,8.15,1.57,14.35,3.55,6.42,2.05,10.6,4.71,12.91,8.09,2.21,3.2,3,7.57,1.59,11.97-1.43,4.47-4.12,7.72-7.63,9.32-4.59,2.14-10.33,1.99-16.41.06-1.43-.46-2.62-.98-3.55-1.35l-5.1,16.01-10.3-3.29,14.14-44.35ZM241.21,48.72c.71.37,1.92.83,3.42,1.31,5.53,1.76,9.81.12,11.26-4.42,1.34-4.2-.74-7.58-6.13-9.3-2.05-.65-3.48-.89-4.27-.99l-4.28,13.41Z"/>
    <path class="cls-6" d="M274.03,77.21l-9.8,7.9-9.24-6.54,39.3-29.99,11.69,8.28-15.03,47.16-9.59-6.79,3.96-12.04-11.29-7.99ZM288.64,77.77l3.33-9.91c.92-2.78,2.24-6.14,3.27-8.84l-.12-.08c-2.2,1.87-4.85,4.37-7.07,6.15l-8.12,6.52,8.71,6.17Z"/>
    <path class="cls-6" d="M331.85,81.24c2.49,2.54,5.86,6.55,9.22,11.28,4.15,5.84,6.2,10.53,6.02,14.88-.17,3.63-1.93,6.82-5.47,9.34-4.91,3.49-10.8,2.32-14.41-.21l-.17.12c.87,3.51-.62,6.86-3.45,10.36-3.46,4.31-7.61,9.1-8.56,10.92l-6.47-9.11c.63-1.41,3.1-4.58,7.01-9.11,4.05-4.46,4.15-7.08,1.64-10.74l-1.91-2.69-15.12,10.75-6.27-8.82,37.94-26.97ZM321.57,101.82l2.49,3.5c3.15,4.44,7.19,5.52,10.56,3.13,3.54-2.51,3.56-6.22.71-10.35-1.54-2.16-2.58-3.26-3.15-3.83l-10.61,7.54Z"/>
    <path class="cls-6" d="M364.2,137.02l-43.98,17.1-3.97-10.21,43.98-17.1,3.97,10.21Z"/>
    <path class="cls-6" d="M334.56,161.89c-1.06,3.11-1.91,7.78-1.28,12.39.68,4.97,3.05,7.32,6.1,6.9,2.91-.4,4.27-2.9,5.5-8.92,1.62-8.32,5.21-14.08,12.01-15.01,7.98-1.09,14.94,4.9,16.48,16.19.74,5.39.24,9.51-.62,12.52l-8.86-1.25c.64-2.04,1.49-5.63.86-10.31-.64-4.68-3.03-6.67-5.46-6.34-2.98.41-3.93,3.28-5.38,9.77-1.9,8.86-5.66,13.42-12.25,14.32-7.84,1.07-15.41-4.19-17.2-17.32-.75-5.46-.02-11.06,1.07-13.95l9.04,1.01Z"/>
  </g>
</svg>